<svg xmlns="http://www.w3.org/2000/svg" width="30" height="19" viewBox="0 0 30 19"><g><g><path fill="#fff" d="M7.002.36c-.688-.446-1.804-.446-2.492 0-.688.447-.688 1.17 0 1.617l8.723 5.657c.453.294 1.093.394 1.673.3.609.123 1.3.028 1.781-.285l8.781-5.695c.693-.45.693-1.178 0-1.627-.692-.45-1.816-.45-2.509 0l-8.004 5.191zm-2.91 8.137c-.938-.614-2.46-.614-3.398 0-.939.613-.939 1.608 0 2.222l11.894 7.778c.619.405 1.49.543 2.282.414.83.168 1.772.037 2.429-.393l11.974-7.83c.945-.618.945-1.62 0-2.237-.944-.618-2.476-.618-3.42 0l-10.916 7.137z"/></g></g></svg>